<?xml version="1.0" standalone="no"?><!DOCTYPE svg PUBLIC "-//W3C//DTD SVG 1.1//EN" "http://www.w3.org/Graphics/SVG/1.1/DTD/svg11.dtd"><svg t="1640941149772" class="icon" viewBox="0 0 1024 1024" version="1.1" xmlns="http://www.w3.org/2000/svg" p-id="3181" xmlns:xlink="http://www.w3.org/1999/xlink" width="200" height="200"><defs><style type="text/css"></style></defs><path d="M768.42 801.956c-65.678-53.1-122.97-135.546-122.97-135.546l-9.782 8.385c18.166 25.153 74.061 96.419 118.777 132.75 46.114 36.333 90.83 68.472 104.804 79.652 13.974 12.576 8.384 19.563 4.192 27.947-6.987 16.769 13.974 25.153 20.96 5.59 1.398-4.193 2.796-9.782 2.796-16.769-2.795-26.55-53.1-48.908-118.778-102.009z" fill="#D81E06" p-id="3182"></path><path d="M637.066 656.629c54.497-12.577 86.637 8.384 117.38 13.974-2.795-8.385-15.372-20.961-8.385-23.756 27.948-9.781 58.69-4.192 88.035-6.987-5.59-5.59-22.358-12.576-16.768-18.166 11.179-11.179 30.742-8.384 46.113-12.576-2.795-2.795-9.782-8.384-6.987-9.782 20.96-9.781 44.716-11.179 67.074-16.768-20.96-4.192-41.921-4.192-61.484-12.577-2.795-1.397 2.794-6.987 4.192-9.781-32.14-4.193-62.882 1.397-95.022-13.974 1.397-26.55 53.1-54.498 78.253-81.048-4.192 0-13.974 2.795-12.576-1.398 13.974-23.755 33.537-44.716 50.306-67.074-29.345 2.795-57.293 4.192-86.638 6.987 11.179-32.14 23.755-62.882 34.934-95.022-9.781 0-29.345 11.18-30.742 1.398-5.59-22.358 9.782-44.717 15.371-67.075-5.59 0-15.37 6.987-16.768 1.398-2.795-12.577 4.192-26.55 6.987-39.127-4.193 0-9.782 1.397-11.18-2.795-2.794-20.96 1.398-43.318 1.398-65.677-15.371 20.961-27.948 44.717-46.114 62.883-2.794 2.794-6.986-4.193-9.781-6.987-8.385 13.973-11.18 33.537-25.153 43.318-5.59 4.193-9.782-8.384-13.974-13.973-12.576 29.345-19.563 60.087-37.73 86.637-4.191 5.59-11.178-11.179-12.576-13.974-2.794-2.794-4.192 92.227-37.729 124.367-47.51-61.484-12.576-100.611-18.166-152.314-2.795 4.192-8.384 15.371-9.781 9.781-6.987-19.563-4.193-40.524-6.987-60.087-2.795 4.192-8.385 16.769-9.782 12.577-5.59-13.974-2.795-30.743-4.192-46.114-5.59 13.974-9.782 30.742-18.166 43.319-1.397 2.795-5.59-2.795-8.384-5.59-1.398 15.371-15.372 46.114-32.14 46.114-12.576 0-30.742-46.114-46.114-68.472-1.397 1.398-4.192 6.987-5.59 5.59-8.383-9.782-12.576-23.756-19.562-34.935-6.987 11.18-15.372 33.537-22.359 32.14-13.973-1.397-36.331-22.358-53.1-33.537 0 2.795 1.397 11.179-1.397 11.179-11.18-4.192-19.564-13.974-29.345-20.96 0 2.794 2.794 11.178 0 9.78-18.166-8.383-33.537-22.357-48.909-33.536 4.193 19.563 11.18 39.126 12.577 58.69 0 2.794-5.59-2.795-8.384-4.192 2.794 11.179 8.384 23.755 8.384 34.934 0 4.192-6.987-1.397-9.782-2.795 4.192 20.961 13.974 48.909 11.18 62.882-1.398 6.987-25.154 5.59-39.127 8.385 8.384 11.179 19.563 19.563 25.152 32.14 1.398 2.794-4.192 2.794-6.987 4.192 15.372 22.358 51.704 55.895 47.511 68.471-5.59 15.371-40.524 16.769-54.497 12.577 0 2.794 4.192 8.384 1.397 9.781-15.371 4.192-30.742 1.398-46.114 1.398 13.974 6.987 30.743 11.179 40.524 20.96 4.193 4.192-9.781 2.795-15.37 4.192 18.165 9.782 37.729 15.372 53.1 29.345 4.192 2.795-8.385 4.193-12.577 5.59 44.716 25.153 93.625 6.987 134.149 74.061-41.922 18.166-129.957-13.974-129.957-11.179 1.398 2.795 13.974 15.371 8.385 16.769-30.743 6.987-62.882 1.397-93.625 2.794 2.795 5.59 12.577 13.974 6.987 18.166-13.974 8.385-33.537 4.192-48.908 6.987 1.397 4.192 5.59 9.782 2.795 11.18-23.756 9.78-50.306 12.576-76.856 19.563 20.96 8.384 41.921 12.576 61.484 23.755 2.795 1.397-1.397 6.987-2.794 11.18 12.576 2.794 27.947 0 39.126 8.383 4.192 2.795-5.59 9.782-6.987 15.372 22.358 4.192 48.909-2.795 68.472 11.179 8.384 5.59-8.384 19.563-12.576 29.345 33.537 1.397 67.074 1.397 102.008 2.794-12.576 26.55-25.152 51.703-39.126 78.254 26.55-6.987 53.1-18.166 81.048-22.359 4.192 0-2.795 8.385-2.795 11.18 34.934-13.974 79.65-51.704 104.803-41.922 2.795 36.332-15.37 61.485-23.755 93.625 4.192 0 11.18-4.193 11.18-1.398 0 20.96-8.385 40.524-12.577 61.485 13.973-18.166 23.755-39.127 40.524-55.895 2.794-2.795 4.192 6.987 6.987 9.781 9.781-12.576 13.973-32.14 27.947-37.729 6.987-2.795 6.987 15.371 9.782 22.358 12.576-26.55 19.563-57.292 39.126-78.253 5.59-5.59 12.577 11.179 18.166 16.768 6.987-30.742-1.397-68.471 32.14-114.585-1.397-1.397-2.795-4.192-4.192-5.59L511.301 794.97l110.393-143.93-321.397-16.768 315.808 5.59L490.34 460.995l-148.123-13.974h139.738l-117.38-194.236 127.162 185.852 53.1-114.586-41.921 128.56 127.162 177.467 132.75-345.153-129.956 353.537 199.826-53.1-199.826 64.279s1.398 2.795 4.193 6.987z" fill="#D81E06" p-id="3183"></path></svg>